<svg width="136" height="136" fill="none" xmlns="http://www.w3.org/2000/svg"><circle cx="66.993" cy="66.993" r="49.282" fill="#F1F1F1" stroke="#192632" stroke-width=".5"/><path d="M55.724 56.962h21.051v21.052m-21.051 0l21.051-21.052" stroke="#192632" stroke-width="5"/><path d="M73.374.25l-.311 6.726-.873-.062.312-5.98L69.388.81l-.312 5.98-.872-.063L68.578 0l4.796.25zm1.869 4.67c-.125 1.184.56 1.745 1.432 1.87.623.062.997.062 1.37-.063l.063.623c-.312.125-.872.187-1.62.062-1.495-.187-2.18-1.308-1.993-2.74.187-1.433 1.184-2.43 2.616-2.243 1.557.25 1.807 1.62 1.682 2.554 0 .187-.062.311-.062.374l-3.488-.436zm2.616-.248c.062-.561 0-1.433-.997-1.558-.872-.124-1.37.623-1.557 1.246l2.554.312zm2.117 0c.124-.623.25-1.121.311-1.557l.748.186-.125.81c.499-.498 1.121-.685 1.869-.498 1.121.249 1.744 1.432 1.433 2.865-.374 1.682-1.62 2.305-2.741 2.055-.623-.124-1.121-.56-1.308-1.058l-.56 2.553-.873-.187 1.246-5.17zm.56 1.432c0 .125-.062.25-.062.374 0 .623.436 1.183 1.06 1.308.933.187 1.619-.436 1.868-1.495.187-.934-.063-1.868-.997-2.055-.56-.125-1.246.187-1.557.747-.062.125-.125.25-.125.312l-.186.81zm5.234 1.059c-.374 1.121.248 1.806 1.058 2.118.623.187.997.187 1.37.187l-.062.623c-.311.062-.872 0-1.62-.187-1.432-.436-1.93-1.682-1.494-3.052.436-1.37 1.62-2.243 2.927-1.807 1.495.499 1.495 1.931 1.184 2.803-.063.187-.125.312-.125.374L85.77 7.163zm2.615.187c.187-.498.25-1.433-.747-1.744-.872-.25-1.495.374-1.744.934l2.491.81zm3.425-.81L91 8.409c-.31.685-.497 1.12-.809 1.744.498-.436.81-.686 1.308-1.06l2.367-1.743.934.373-1.868 4.423-.748-.312.81-1.868c.311-.748.498-1.121.81-1.807a16.34 16.34 0 01-1.308 1.06c-.685.498-1.557 1.183-2.367 1.743l-.934-.373 1.868-4.423.748.374zm1.309-1.62c-.125.437-.063.81.311.935.374.187.685-.062.934-.436l.561.249c-.374.747-.997.934-1.682.623-.81-.312-.934-.997-.685-1.62l.56.25zm6.104 5.108l-.312.623-1.308-.685-1.868 3.675-.748-.374 1.869-3.675-1.308-.685.311-.623 3.364 1.744zm1.558.872l-1.059 1.744c-.374.685-.685 1.059-1.059 1.62.56-.374.872-.561 1.433-.872l2.616-1.308.872.56-2.492 4.111-.685-.436 1.059-1.744c.436-.685.623-.996 1.059-1.682-.561.374-.997.56-1.433.872-.809.374-1.744.935-2.616 1.37l-.872-.498 2.492-4.11.685.373zm6.664 4.547l-1.308 1.62.187.124 2.74-.498.81.685-2.99.436c.561.56.623 1.246.374 2.18a6.07 6.07 0 00-.312 1.246l-.747-.56c0-.25.125-.624.249-1.06.249-.81.062-1.37-.56-1.868l-.125-.125-1.308 1.682-.685-.56 2.99-3.8.685.498zm7.225 6.353l-.498.499-1.059-1.06-2.865 2.99-.623-.622 2.865-2.99-1.059-1.059.499-.498 2.74 2.74zm1.744 5.482c-1.308 1.183-2.74.81-3.488-.062-.872-.997-.81-2.367.312-3.364 1.183-1.059 2.616-.934 3.488.062.872.997.747 2.367-.312 3.364zm-2.616-2.803c-.81.685-.996 1.682-.436 2.305.561.623 1.557.56 2.367-.125.623-.56 1.121-1.557.436-2.304-.685-.81-1.682-.499-2.367.124zm5.17 2.304c.249.25.685.686.997 1.184.498.623 1.183 1.806.311 2.43-.498.373-1.059.186-1.495-.125.374.622.312 1.308-.249 1.681-.997.748-2.118-.436-2.678-1.183-.312-.436-.623-.872-.748-1.121l3.862-2.866zm-2.865 3.177l.373.56c.374.499.997 1.06 1.558.686.56-.436.249-1.06-.249-1.744l-.374-.498-1.308.996zm1.806-1.308l.374.498c.374.499.934.935 1.37.623.374-.311.312-.747-.187-1.432a4.04 4.04 0 00-.436-.499l-1.121.81zm1.557 7.225l.498-.373c-.436 0-.997-.25-1.37-.872-.499-.81-.187-1.62.373-1.994.997-.622 2.056-.062 3.052 1.495l.063-.062c.311-.187.872-.685.373-1.495a2.661 2.661 0 00-.996-.872l.374-.498c.436.187.872.623 1.183 1.12.81 1.247.125 2.119-.685 2.617l-1.495.997c-.374.249-.685.436-.934.685l-.436-.748zm1.993-1.432c-.498-.81-1.246-1.62-1.993-1.121-.499.311-.499.747-.249 1.12.311.561.872.624 1.308.561a.475.475 0 00.249-.124l.685-.436zm1.931 1.619c.561-.311.997-.56 1.37-.747l.374.685-.685.436c.685.062 1.246.374 1.619 1.059.561 1.059.063 2.242-1.245 2.927-1.558.81-2.803.25-3.302-.747-.311-.56-.311-1.184 0-1.682l-2.304 1.246-.374-.748 4.547-2.429zm-.748 1.37c-.124.063-.186.125-.311.187a1.431 1.431 0 00-.311 1.62c.436.81 1.37.934 2.304.436.872-.436 1.371-1.308.935-2.118-.25-.56-.935-.81-1.558-.685-.124 0-.249.062-.373.125l-.686.436zm4.859 3.364l-2.242 2.055a7.89 7.89 0 01-.81.685c.312 0 .685-.062 1.059-.124l2.99-.25.374.873-3.613.187c-1.744.062-2.741 0-3.426-.374-.498-.25-.81-.56-.934-.748l.623-.498c.124.187.374.374.685.56.249.125.685.312 1.183.312h.25c.062 0 .124-.062.186-.124l3.426-3.364.249.81zm7.35 32.576l-6.726-.311.062-.872 5.979.311.125-3.114-5.98-.312.063-.872 6.727.312-.25 4.858zm-4.671 1.806c-1.183-.124-1.744.56-1.869 1.433-.062.623-.062.996.063 1.37l-.623.063c-.125-.312-.187-.873-.062-1.62.186-1.495 1.308-2.18 2.74-1.993 1.433.187 2.429 1.183 2.242 2.616-.249 1.557-1.619 1.806-2.553 1.682-.187 0-.312-.063-.374-.063l.436-3.488zm.249 2.616c.561.063 1.433 0 1.557-.996.125-.872-.623-1.37-1.245-1.557l-.312 2.553zm0 2.118c.623.125 1.122.25 1.558.312l-.187.747-.81-.124c.498.498.685 1.12.498 1.868-.249 1.121-1.432 1.744-2.865 1.433-1.682-.374-2.305-1.62-2.055-2.741.124-.623.56-1.121 1.058-1.308l-2.553-.56.187-.873 5.169 1.246zm-1.432.56c-.125 0-.249-.062-.374-.062-.623 0-1.183.436-1.308 1.06-.187.934.436 1.619 1.495 1.868.934.187 1.869-.125 2.055-.997.125-.56-.186-1.245-.747-1.557-.125-.062-.249-.124-.311-.124l-.81-.187zM128 85.707c-1.121-.374-1.806.249-2.117 1.059-.187.622-.187.996-.187 1.37l-.623-.063c-.062-.31 0-.871.187-1.619.436-1.433 1.682-1.93 3.052-1.495 1.37.436 2.242 1.62 1.806 2.928-.498 1.495-1.931 1.495-2.803 1.183-.187-.062-.311-.124-.373-.124l1.058-3.24zm-.249 2.678c.499.187 1.433.25 1.744-.748.249-.871-.373-1.494-.934-1.743l-.81 2.49zm.81 3.425l-1.869-.809c-.685-.311-1.121-.498-1.744-.81.436.499.685.81 1.059 1.308l1.744 2.367-.374.935-4.422-1.869.312-.748 1.868.81c.748.312 1.121.499 1.806.81a16.223 16.223 0 01-1.058-1.308c-.499-.685-1.184-1.557-1.744-2.367l.373-.934 4.423 1.868-.374.748zm1.619 1.246c-.436-.124-.809-.062-.934.312-.187.374.062.685.436.934l-.249.56c-.748-.373-.934-.996-.623-1.68.311-.81.997-.935 1.619-.686l-.249.56zm-5.108 6.104l-.623-.31.685-1.309-3.675-1.868.374-.748 3.675 1.869.685-1.308.623.311-1.744 3.364zm-.871 1.62l-1.744-1.059c-.686-.374-1.059-.685-1.62-1.059.374.56.561.872.872 1.433l1.308 2.616-.56.872-4.111-2.491.436-.686 1.744 1.059c.685.436.996.623 1.681 1.059-.373-.56-.56-.996-.872-1.432-.373-.81-.934-1.745-1.37-2.617l.498-.871 4.111 2.491-.373.685zm-4.548 6.665l-1.619-1.308-.125.187.499 2.741-.686.809-.436-2.989c-.56.56-1.245.623-2.18.373a6.063 6.063 0 00-1.245-.311l.56-.747c.249 0 .623.124 1.059.249.81.249 1.37.062 1.869-.561l.124-.124-1.682-1.308.561-.686 3.8 2.99-.499.685zm-6.353 7.163l-.498-.499 1.059-1.058-2.99-2.866.623-.623 2.989 2.866 1.059-1.059.499.498-2.741 2.741zm-5.481 1.744c-1.184-1.308-.81-2.741.062-3.488.997-.872 2.367-.81 3.364.311 1.058 1.184.934 2.616-.063 3.488-.996.935-2.367.81-3.363-.311zm2.865-2.554c-.685-.81-1.682-.996-2.305-.436-.623.561-.56 1.557.125 2.367.56.623 1.557 1.121 2.304.436.748-.685.499-1.682-.124-2.367zm-2.366 5.108c-.249.249-.685.685-1.184.996-.623.499-1.806 1.184-2.429.312-.374-.499-.187-1.059.125-1.495-.623.374-1.308.311-1.682-.249-.748-.997.436-2.118 1.183-2.679.436-.311.872-.622 1.122-.747l2.865 3.862zm-3.177-2.803l-.561.374c-.498.373-1.058.996-.685 1.557.436.56 1.059.249 1.744-.249l.499-.374-.997-1.308zm1.308 1.744l-.498.374c-.498.373-.934.934-.623 1.37.311.374.747.311 1.433-.187.249-.187.373-.311.498-.436l-.81-1.121zm-7.163 1.619l.374.499c0-.436.249-.997.872-1.371.809-.498 1.619-.187 1.993.374.623.997.062 2.055-1.495 3.052l.062.062c.187.312.685.872 1.495.374.374-.249.685-.623.872-.997l.499.374c-.187.436-.623.872-1.122 1.184-1.245.809-2.117.124-2.616-.686l-.996-1.494c-.25-.374-.436-.686-.685-.935l.747-.436zm1.433 1.993c.809-.498 1.619-1.245 1.121-1.993-.312-.498-.748-.498-1.121-.249-.561.312-.623.872-.561 1.308 0 .062.062.187.125.249l.436.685zm-1.62 1.869c.311.56.56.996.747 1.37l-.685.374-.436-.685c-.062.685-.373 1.245-1.059 1.619-1.058.561-2.242.062-2.927-1.246-.81-1.557-.25-2.803.747-3.301.56-.311 1.184-.311 1.682 0l-1.246-2.304.748-.374 2.429 4.547zm-1.37-.685c-.063-.125-.125-.187-.187-.312a1.433 1.433 0 00-1.62-.311c-.81.436-.934 1.37-.436 2.304.436.872 1.308 1.371 2.118.935.56-.25.81-.935.685-1.558 0-.124-.062-.249-.124-.373l-.436-.685zm-3.426 4.858l-2.056-2.242a7.89 7.89 0 01-.685-.81c0 .312.062.685.125 1.059l.249 2.99-.872.374-.125-3.675c-.062-1.744 0-2.741.374-3.426.25-.498.56-.81.747-.934l.499.622c-.187.125-.374.374-.56.686-.125.249-.312.685-.312 1.183v.249c0 .063.062.125.124.187l3.364 3.426-.872.311zm-32.577 7.35l.312-6.727.872.063-.312 5.979 3.115.125.311-5.98.872.063-.311 6.727-4.859-.25zm-1.806-4.733c.125-1.184-.56-1.744-1.432-1.869-.623-.062-.997-.062-1.37.062l-.063-.623c.311-.124.872-.186 1.62-.062 1.494.187 2.18 1.308 1.993 2.741-.187 1.432-1.184 2.429-2.616 2.242-1.558-.249-1.807-1.682-1.682-2.554 0-.187.062-.311.062-.373l3.488.436zm-2.616.311c-.062.561 0 1.433.997 1.557.872.125 1.37-.623 1.557-1.246l-2.554-.311zm-2.118 0c-.124.623-.249 1.121-.311 1.557l-.748-.187.125-.81c-.498.499-1.121.686-1.869.499-1.121-.249-1.744-1.433-1.432-2.865.373-1.682 1.62-2.305 2.74-2.056.623.125 1.121.561 1.308 1.059l.56-2.554.873.187-1.246 5.17zm-.56-1.433c0-.124.062-.249.062-.373 0-.623-.436-1.184-1.06-1.308-.933-.187-1.618.436-1.868 1.494-.186.935.063 1.869.997 2.056.56.124 1.246-.187 1.557-.748.062-.124.125-.249.125-.311l.187-.81zm-5.233-1.059c.374-1.121-.249-1.806-1.059-2.117-.622-.187-.996-.187-1.37-.187l.062-.623c.312-.062.872 0 1.62.187 1.432.436 1.93 1.682 1.495 3.052-.436 1.37-1.62 2.242-2.928 1.806-1.495-.498-1.495-1.931-1.183-2.803.062-.187.124-.311.124-.373l3.24 1.058zm-2.616-.186c-.187.498-.249 1.432.748 1.744.872.249 1.495-.374 1.744-.935l-2.492-.809zm-4.733 2.366c.124-.436.062-.809-.312-.934-.373-.187-.685.062-.934.436l-.56-.249c.373-.747.996-.934 1.681-.623.81.312.935.997.685 1.62l-.56-.25zm1.308-1.557l.81-1.868c.311-.685.498-1.121.81-1.744-.499.436-.81.685-1.309 1.059l-2.367 1.744-.934-.374 1.869-4.423.747.312-.81 1.868c-.311.748-.498 1.122-.81 1.807.499-.436.873-.748 1.309-1.059.685-.498 1.557-1.184 2.367-1.744l.934.374-1.869 4.422-.747-.374zm-7.412-3.488l.312-.623 1.308.685 1.868-3.675.748.374-1.869 3.675 1.308.685-.311.623-3.364-1.744zm-1.557-.934l1.058-1.744c.374-.623.685-1.059 1.06-1.62-.561.374-.873.561-1.433.872l-2.616 1.308-.872-.56 2.491-4.111.685.436-1.059 1.744c-.436.685-.623.997-1.059 1.682.561-.374.997-.561 1.433-.872.81-.374 1.744-.935 2.616-1.371l.872.499-2.491 4.111-.685-.374zm-6.728-4.484l1.308-1.62-.187-.124-2.74.498-.81-.685 2.99-.436c-.561-.561-.623-1.246-.374-2.18.125-.312.249-.81.311-1.246l.748.561c0 .249-.125.622-.25 1.058-.248.81-.062 1.371.561 1.869l.125.125 1.308-1.682.685.56-2.99 3.8-.685-.498zm-7.163-6.354l.498-.498 1.06 1.058 2.865-2.989.622.623-2.865 2.989 1.06 1.059-.5.498-2.74-2.74zm-1.744-5.481c1.308-1.184 2.74-.81 3.488.062.872.997.81 2.367-.311 3.363-1.184 1.059-2.616.935-3.488-.062-.935-.996-.81-2.367.311-3.363zm2.554 2.803c.81-.686.997-1.682.436-2.305-.56-.623-1.557-.561-2.367.125-.623.56-1.121 1.557-.436 2.304.685.81 1.682.498 2.367-.124zm-5.107-2.305c-.25-.249-.685-.685-.997-1.184-.498-.622-1.183-1.806-.311-2.429.498-.373 1.059-.187 1.495.125-.374-.623-.312-1.308.249-1.682.997-.747 2.118.436 2.678 1.184.312.436.623.872.748 1.121l-3.862 2.865zm1.059-1.869l-.374-.498c-.374-.498-.934-.934-1.37-.623-.374.312-.312.748.187 1.433.187.249.311.373.436.498l1.12-.81zm1.806-1.308l-.374-.56c-.373-.499-.996-1.059-1.557-.685-.56.436-.249 1.058.25 1.744l.373.498 1.308-.997zm-3.364-5.917l-.498.374c.436 0 .997.249 1.37.872.499.81.187 1.619-.373 1.993-.997.623-2.056.062-3.052-1.495l-.063.062c-.311.187-.872.686-.373 1.495.249.374.622.686.996.872l-.374.499c-.436-.187-.872-.623-1.183-1.122-.81-1.245-.125-2.117.685-2.616l1.495-.996c.374-.25.685-.436.934-.685l.436.747zm-2.055 1.433c.498.809 1.246 1.619 1.993 1.121.498-.312.498-.748.25-1.121-.312-.561-.873-.623-1.309-.561a.468.468 0 00-.249.125l-.685.436zm-1.869-1.62c-.56.312-.997.56-1.37.748l-.374-.685.685-.437c-.685-.062-1.246-.373-1.62-1.058-.56-1.06-.062-2.243 1.246-2.928 1.557-.81 2.803-.249 3.301.748.312.56.312 1.183 0 1.681l2.305-1.245.374.747-4.547 2.43zm.747-1.37c.125-.062.187-.125.312-.187.436-.436.56-1.059.311-1.62-.436-.81-1.37-.934-2.305-.435-.872.436-1.37 1.308-.934 2.117.25.561.934.81 1.557.686.125 0 .25-.063.374-.125l.685-.436zm-4.92-3.426l2.242-2.055c.25-.25.56-.499.81-.685-.312 0-.685.062-1.059.124l-2.99.25L6.23 91l3.674-.124c1.745-.063 2.741 0 3.426.373.498.25.81.561.934.748l-.622.498c-.125-.187-.374-.373-.685-.56-.25-.125-.686-.312-1.184-.312h-.25c-.061 0-.124.062-.186.125L7.91 95.112l-.31-.872zM.25 61.726l6.726.312-.062.872-5.98-.312-.124 3.115 5.98.311-.063.872L0 66.585l.25-4.859zm4.733-1.806c1.183.125 1.744-.56 1.869-1.433.062-.622.062-.996-.063-1.37l.623-.062c.125.311.187.872.062 1.62-.186 1.494-1.308 2.18-2.74 1.992-1.433-.186-2.43-1.183-2.243-2.616.25-1.557 1.62-1.806 2.554-1.681.187 0 .312.062.374.062l-.436 3.488zm-.25-2.678c-.56-.063-1.432 0-1.556.996-.125.872.623 1.37 1.245 1.557l.312-2.553zm-.061-2.056c-.623-.124-1.121-.249-1.557-.311l.187-.748.81.125c-.499-.498-.686-1.121-.499-1.869.25-1.12 1.433-1.744 2.865-1.432 1.682.373 2.305 1.62 2.056 2.74-.125.623-.56 1.122-1.06 1.308l2.555.561-.187.872-5.17-1.246zm1.433-.56c.124 0 .249.062.373.062.623 0 1.184-.436 1.308-1.059.187-.934-.436-1.62-1.495-1.868-.934-.187-1.868.062-2.055.996-.125.56.187 1.246.747 1.557.125.063.25.125.312.125l.81.187zm1.059-5.233c1.12.374 1.806-.249 2.117-1.059.187-.622.187-.996.187-1.37l.623.062c.063.312 0 .872-.187 1.62-.436 1.432-1.681 1.93-3.052 1.495-1.37-.436-2.242-1.62-1.806-2.928.498-1.495 1.93-1.495 2.803-1.183.187.062.311.124.374.124l-1.06 3.24zm.187-2.678c-.499-.187-1.433-.25-1.744.747-.25.872.373 1.495.934 1.744l.81-2.491zm-2.367-4.671c.436.125.81.062.934-.311.187-.374-.062-.686-.436-.935l.249-.56c.747.373.934.996.623 1.681-.312.81-.997.935-1.62.686l.25-.561zM6.54 43.29l1.868.81c.685.31 1.121.498 1.744.81-.436-.5-.685-.81-1.059-1.309L7.35 41.234l.374-.934 4.422 1.869-.31.747-1.87-.81c-.747-.311-1.12-.498-1.806-.81.436.499.748.873 1.059 1.309.498.685 1.184 1.557 1.744 2.366l-.374.935-4.422-1.869.374-.747zm3.488-7.413l.623.312-.685 1.308 3.675 1.868-.374.748-3.675-1.869-.685 1.308-.623-.311 1.744-3.364zm.935-1.557l1.744 1.059c.685.373 1.059.685 1.62 1.059a17.732 17.732 0 01-.873-1.433l-1.308-2.616.56-.872 4.112 2.491-.436.686-1.744-1.06c-.685-.435-.997-.622-1.682-1.058.374.56.56.996.872 1.432.374.81.934 1.744 1.37 2.616l-.498.872-4.11-2.491.373-.685zm4.485-6.664l1.62 1.308.124-.187-.498-2.74.685-.81.436 2.99c.56-.561 1.245-.624 2.18-.375.311.125.81.25 1.245.312l-.56.747c-.25 0-.623-.124-1.059-.249-.81-.249-1.37-.062-1.869.56l-.124.125 1.681 1.308-.56.686-3.8-2.99.499-.685zm6.415-7.226l.499.499-1.06 1.059 2.99 2.865-.622.623-2.99-2.866-1.059 1.06-.498-.499 2.74-2.74zm5.418-1.682c1.184 1.308.81 2.741-.062 3.488-.997.873-2.367.81-3.364-.31-1.058-1.184-.934-2.617.063-3.489 1.059-.934 2.429-.81 3.363.311zm-2.803 2.554c.685.81 1.682.997 2.305.436.623-.56.56-1.557-.125-2.367-.56-.622-1.557-1.12-2.304-.436-.81.686-.498 1.682.124 2.367zm2.368-5.17c.249-.249.685-.685 1.183-.997.623-.498 1.806-1.183 2.43-.31.373.497.186 1.058-.125 1.494.623-.374 1.308-.311 1.682.25.747.996-.436 2.117-1.184 2.677-.436.312-.872.623-1.121.748l-2.865-3.862zm1.806 1.121l.498-.373c.499-.374.935-.935.623-1.37-.311-.374-.747-.312-1.432.186-.25.187-.374.312-.499.436l.81 1.121zm1.37 1.744l.56-.373c.5-.374 1.06-.997.686-1.558-.436-.56-1.059-.249-1.744.25l-.498.373.996 1.308zm5.856-3.363l-.374-.498c0 .436-.25.996-.872 1.37-.81.498-1.62.187-1.993-.374-.623-.996-.063-2.055 1.494-3.052l-.062-.062c-.187-.311-.685-.872-1.495-.374a2.68 2.68 0 00-.872.997l-.498-.374c.187-.436.623-.872 1.121-1.183 1.246-.81 2.118-.125 2.616.685l.997 1.495c.249.373.436.685.685.934l-.747.436zm-1.433-1.993c-.81.498-1.62 1.246-1.121 1.993.311.498.747.498 1.121.25.56-.312.623-.873.56-1.309a.472.472 0 00-.124-.249l-.436-.685zm1.62-1.931c-.312-.56-.561-.997-.748-1.37l.685-.374.436.685c.063-.685.374-1.246 1.06-1.62 1.058-.56 2.242-.062 2.927 1.246.81 1.558.249 2.803-.748 3.302-.56.31-1.183.31-1.681 0l1.245 2.304-.747.374-2.43-4.547zm1.37.747c.062.125.124.187.187.312.436.436 1.059.56 1.62.311.809-.436.934-1.37.435-2.304-.436-.872-1.308-1.37-2.117-.935-.561.25-.81.935-.686 1.558 0 .124.063.249.125.373l.436.685zM40.86 7.6l2.056 2.241c.249.25.498.561.685.81 0-.311-.062-.685-.125-1.059l-.249-2.99.872-.373.125 3.675c.062 1.744 0 2.74-.374 3.425-.25.499-.56.81-.747.935l-.499-.623c.187-.125.374-.374.56-.685.125-.25.312-.685.312-1.184v-.249c0-.062-.062-.124-.124-.187l-3.364-3.425.872-.312z" fill="#192632"/></svg>