<svg width="136" height="136" fill="none" xmlns="http://www.w3.org/2000/svg"><circle cx="68.139" cy="68.139" r="49.305" fill="#F1F1F1" stroke="#192632" stroke-width=".5"/><path d="M87 68L58.5 83.588V52.412L87 68zM72.942 6.678c-.312.125-.997.25-1.808.25-1.87-.063-3.241-1.372-3.18-3.554.126-2.12 1.56-3.49 3.679-3.366.81.062 1.371.25 1.558.374l-.25.686c-.31-.187-.81-.312-1.37-.312-1.559-.062-2.681.873-2.743 2.68-.063 1.621.81 2.743 2.43 2.806.5 0 1.06-.063 1.434-.187l.25.623zm1.621-4.488l1.06.124.498 2.556c.062.374.187.998.25 1.372.186-.312.56-1.06.81-1.559l1.06-1.994 1.06.124-.375 4.8-.81-.125.25-2.306c.061-.499.061-1.122.186-1.745-.187.436-.374.81-.748 1.496l-1.247 2.306-.623-.062-.499-2.494c-.062-.498-.187-1.184-.25-1.683h-.061c-.125.561-.25 1.185-.312 1.683l-.436 2.244-.81-.124.997-4.613zm10.223 4.363c-.437 1.745-1.808 2.182-2.93 1.933-1.247-.312-1.995-1.497-1.683-2.93.374-1.559 1.62-2.244 2.93-1.933 1.371.312 2.057 1.496 1.683 2.93zm-3.74-.81c-.25.997.124 1.932.997 2.12.81.186 1.62-.437 1.87-1.497.187-.81.062-1.87-.998-2.12-.934-.249-1.62.562-1.87 1.497zm8.664-.063l-.186.686-1.434-.436-1.247 3.927-.81-.25 1.246-3.927-1.433-.436.187-.686L89.71 5.68zm.312 1.808c.25-.56.437-1.06.562-1.496l.748.312-.25.81c.561-.436 1.185-.499 1.933-.187 1.06.436 1.496 1.683.935 3.055-.686 1.62-1.995 1.994-2.992 1.558-.561-.25-.998-.686-1.06-1.247l-.998 2.432-.81-.312 1.932-4.925zm.312 1.496c-.062.125-.062.25-.124.374-.063.624.249 1.185.81 1.434.873.374 1.62-.125 2.057-1.184.374-.873.187-1.87-.623-2.182-.561-.25-1.247-.063-1.621.499-.062.062-.125.187-.187.311l-.312.748zm5.049 1.871c-.499 1.06-.062 1.87.686 2.244.56.311.935.374 1.309.374l-.125.623c-.312 0-.873-.125-1.558-.499-1.31-.685-1.683-1.932-.998-3.241.686-1.31 1.933-1.933 3.18-1.247 1.37.748 1.122 2.12.748 2.93-.063.187-.188.25-.188.374l-3.054-1.558zm2.556.623c.25-.499.436-1.371-.437-1.808-.81-.436-1.496.125-1.87.624l2.307 1.184zm5.548 1.059l-.374.624-1.309-.81-2.182 3.49-.748-.436 2.182-3.49-1.31-.811.375-.624 3.366 2.057zm1.496.998l-.935 1.31c.187.061.436.248.686.436.872.623 1.62 1.558.872 2.618-.311.436-.685.56-1.059.623-.686.062-1.434-.374-2.057-.748-.374-.312-.748-.561-.998-.81l2.805-3.928.686.5zm-2.431 3.429c.125.124.249.249.499.436.561.374 1.371.686 1.807.062.499-.685-.124-1.309-.623-1.745-.187-.125-.374-.25-.561-.312l-1.122 1.559zm7.606.623c.311.187.81.561 1.184.935.623.561 1.496 1.558.81 2.306-.374.437-.997.437-1.496.125.437.561.561 1.185.125 1.683-.873.935-2.12 0-2.868-.623-.374-.374-.81-.748-.997-.935l3.242-3.491zm-2.182 3.678l.498.498c.437.375 1.185.873 1.621.375.499-.5.063-1.123-.561-1.684l-.499-.436-1.059 1.247zm1.496-1.62l.499.435c.498.437 1.122.748 1.496.312.311-.374.187-.81-.499-1.371a3.422 3.422 0 00-.561-.437l-.935 1.06zm5.174 2.056l-1.496 1.371c-.561.5-.935.873-1.434 1.31.623-.188.997-.312 1.621-.437l2.867-.623.686.748-3.491 3.304-.561-.624 1.496-1.371c.561-.561.873-.81 1.496-1.31-.685.188-1.06.313-1.621.437-.872.187-1.87.436-2.867.624l-.686-.748 3.429-3.242.561.561zm5.672 6.67l-3.241 2.556.311.374-1.745 1.309-.437-.561 1.185-.997-2.057-2.619-1.247.935-.436-.56 1.683-1.372.249.312c.374 0 .748-.125 1.06-.25a7.954 7.954 0 001.683-.997l.997-.748 1.995 2.618zm-2.68-1.06c-.499.374-1.06.686-1.559.935-.312.125-.623.187-.935.25l1.372 1.745 2.742-2.182-.997-1.246-.623.498zm1.807 4.302c-.997.685-.997 1.558-.499 2.306.374.499.624.748.935.998l-.436.498c-.312-.187-.686-.56-1.122-1.184-.81-1.247-.499-2.494.686-3.304 1.184-.81 2.618-.748 3.428.436.873 1.31-.062 2.431-.81 2.93-.125.125-.249.187-.374.187l-1.808-2.867zm1.995 1.807c.499-.311 1.06-.997.499-1.807-.499-.748-1.372-.624-1.933-.312l1.434 2.12zm2.805 5.736c-1.558.872-2.867.124-3.428-.873-.624-1.122-.25-2.494 1.059-3.242 1.434-.748 2.743-.311 3.429.873.623 1.247.249 2.556-1.06 3.242zm-1.932-3.304c-.935.498-1.309 1.433-.935 2.181.374.748 1.371.935 2.368.374.686-.373 1.434-1.246.935-2.181-.498-.935-1.558-.81-2.368-.374zm6.171 37.09c-.124-.312-.249-.997-.249-1.808.062-1.87 1.372-3.241 3.553-3.179 2.12.125 3.491 1.558 3.367 3.678-.063.81-.25 1.371-.375 1.558l-.685-.249c.187-.312.311-.81.311-1.371.063-1.559-.872-2.68-2.68-2.743-1.621-.063-2.743.81-2.805 2.431 0 .499.062 1.06.187 1.434l-.624.25zm4.427 1.621l-.125 1.06-2.556.498c-.374.062-.997.187-1.371.25.312.186 1.06.56 1.558.81l1.995 1.06-.125 1.06-4.799-.375.124-.81 2.307.25c.498.061 1.122.061 1.745.186-.436-.187-.81-.374-1.496-.748l-2.306-1.247.062-.623 2.493-.499c.499-.062 1.185-.187 1.683-.249v-.062a19.495 19.495 0 00-1.683-.312l-2.244-.436.125-.81 4.613.997zm-4.364 10.223c-1.746-.436-2.182-1.808-1.933-2.93.312-1.246 1.497-1.994 2.93-1.683 1.559.374 2.244 1.621 1.933 2.93-.312 1.372-1.496 1.995-2.93 1.683zm.873-3.74c-.998-.25-1.933.125-2.12.997-.187.81.437 1.621 1.496 1.87.811.188 1.87.063 2.12-.997.187-.997-.624-1.683-1.496-1.87zm.062 8.602l-.686-.187.437-1.433-3.928-1.247.25-.81 3.927 1.246.436-1.433.686.186-1.122 3.678zm-1.807.374c.561.25 1.059.437 1.496.561l-.312.748-.81-.25c.436.562.498 1.185.187 1.933-.437 1.06-1.684 1.496-3.055.936-1.621-.686-1.995-1.995-1.558-2.993.249-.56.685-.997 1.246-1.06l-2.431-.997.312-.81 4.925 1.932zm-1.559.312c-.125-.062-.249-.062-.374-.125-.623-.062-1.184.25-1.434.81-.374.873.125 1.621 1.185 2.058.872.374 1.87.187 2.182-.624.249-.56.062-1.246-.499-1.62-.062-.063-.187-.125-.312-.187l-.748-.312zm-1.87 4.986c-1.06-.498-1.87-.061-2.244.687-.312.56-.374.935-.374 1.309l-.624-.125c0-.312.125-.873.499-1.558.686-1.31 1.933-1.683 3.242-.998 1.309.686 1.932 1.933 1.246 3.18-.748 1.37-2.119 1.121-2.929.748-.188-.063-.25-.188-.375-.188l1.559-3.054zm-.623 2.557c.498.25 1.371.436 1.807-.437.437-.81-.124-1.496-.623-1.87l-1.184 2.307zm-.998 5.548l-.623-.374.81-1.309-3.491-2.182.436-.748 3.491 2.182.811-1.31.623.374-2.057 3.367zm-1.06 1.496l-1.309-.935c-.062.187-.249.436-.436.686-.624.872-1.559 1.62-2.618.872-.437-.311-.561-.685-.624-1.059-.062-.686.374-1.434.748-2.057.312-.374.561-.748.811-.998l3.927 2.805-.499.686zm-3.428-2.431c-.125.125-.25.249-.437.499-.374.561-.685 1.371-.062 1.807.686.499 1.309-.124 1.745-.623.125-.187.25-.374.312-.561l-1.558-1.122zm-.624 7.667a6.98 6.98 0 01-.935 1.185c-.561.623-1.558 1.496-2.306.81-.436-.374-.436-.997-.125-1.496-.561.436-1.184.561-1.683.125-.935-.873 0-2.12.624-2.868.374-.374.748-.81.935-.997l3.49 3.241zm-3.677-2.244l-.499.499c-.374.436-.873 1.184-.374 1.62.499.499 1.122.063 1.683-.561l.436-.498-1.246-1.06zm1.683 1.496l-.437.499c-.436.498-.748 1.122-.311 1.496.374.312.81.187 1.371-.499.187-.187.312-.374.436-.561l-1.059-.935zm-2.12 5.174l-1.371-1.496c-.499-.561-.873-.935-1.31-1.434.188.624.312.998.437 1.621l.623 2.868-.748.685-3.304-3.491.624-.561 1.371 1.496c.561.561.81.873 1.309 1.497-.187-.686-.312-1.06-.436-1.621-.187-.873-.437-1.87-.624-2.868l.748-.685 3.304 3.49-.623.499zm-6.608 5.673l-2.555-3.242-.374.312-1.31-1.746.562-.436.997 1.185 2.618-2.058-.935-1.246.561-.437 1.371 1.683-.311.25c0 .374.124.748.249 1.059.249.562.561 1.123.998 1.684l.748.997-2.619 1.995zm.998-2.618a10.289 10.289 0 01-.935-1.559c-.125-.312-.187-.623-.25-.935l-1.745 1.372 2.182 2.742 1.246-.997-.498-.623zm-4.301 1.808c-.686-.998-1.559-.998-2.307-.499-.499.374-.748.623-.997.935l-.499-.436c.187-.312.561-.686 1.184-1.123 1.247-.81 2.494-.498 3.304.686.811 1.185.748 2.618-.436 3.429-1.309.872-2.431-.063-2.93-.811-.125-.124-.187-.249-.187-.374l2.868-1.807zm-1.808 1.932c.312.499.997 1.06 1.808.499.748-.499.623-1.372.311-1.933l-2.119 1.434zm-5.735 2.805c-.873-1.558-.125-2.867.873-3.428 1.122-.624 2.493-.25 3.241 1.059.748 1.434.312 2.743-.873 3.429-1.246.686-2.556.249-3.241-1.06zm3.304-1.87c-.499-.935-1.434-1.309-2.182-.935-.748.374-.935 1.371-.374 2.369.374.686 1.247 1.434 2.182.935.872-.499.81-1.559.374-2.369z" fill="#192632"/><path d="M128.484 72.942c-.124-.312-.249-.997-.249-1.808.062-1.87 1.372-3.241 3.553-3.179 2.12.125 3.491 1.558 3.367 3.678-.063.81-.25 1.371-.375 1.558l-.685-.249c.187-.312.311-.81.311-1.371.063-1.559-.872-2.68-2.68-2.743-1.621-.063-2.743.81-2.805 2.431 0 .499.062 1.06.187 1.434l-.624.25zm4.427 1.621l-.125 1.06-2.556.498c-.374.062-.997.187-1.371.25.312.186 1.06.56 1.558.81l1.995 1.06-.125 1.06-4.799-.375.124-.81 2.307.25c.498.061 1.122.061 1.745.186-.436-.187-.81-.374-1.496-.748l-2.306-1.247.062-.623 2.493-.499c.499-.062 1.185-.187 1.683-.249v-.062a19.495 19.495 0 00-1.683-.312l-2.244-.436.125-.81 4.613.997zm-4.364 10.223c-1.746-.436-2.182-1.808-1.933-2.93.312-1.246 1.497-1.994 2.93-1.683 1.559.374 2.244 1.621 1.933 2.93-.312 1.372-1.496 1.995-2.93 1.683zm.873-3.74c-.998-.25-1.933.125-2.12.997-.187.81.437 1.621 1.496 1.87.811.188 1.87.063 2.12-.997.187-.997-.624-1.683-1.496-1.87zm.062 8.602l-.686-.187.437-1.433-3.928-1.247.25-.81 3.927 1.246.436-1.433.686.186-1.122 3.678zm-1.807.374c.561.25 1.059.437 1.496.561l-.312.748-.81-.25c.436.562.498 1.185.187 1.933-.437 1.06-1.684 1.496-3.055.936-1.621-.686-1.995-1.995-1.558-2.993.249-.56.685-.997 1.246-1.06l-2.431-.997.312-.81 4.925 1.932zm-1.559.312c-.125-.062-.249-.062-.374-.125-.623-.062-1.184.25-1.434.81-.374.873.125 1.621 1.185 2.058.872.374 1.87.187 2.182-.624.249-.56.062-1.246-.499-1.62-.062-.063-.187-.125-.312-.187l-.748-.312zm-1.87 4.986c-1.06-.498-1.87-.061-2.244.687-.312.56-.374.935-.374 1.309l-.624-.125c0-.312.125-.873.499-1.558.686-1.31 1.933-1.683 3.242-.998 1.309.686 1.932 1.933 1.246 3.18-.748 1.37-2.119 1.121-2.929.748-.188-.063-.25-.188-.375-.188l1.559-3.054zm-.623 2.557c.498.25 1.371.436 1.807-.437.437-.81-.124-1.496-.623-1.87l-1.184 2.307zm-.998 5.548l-.623-.374.81-1.309-3.491-2.182.436-.748 3.491 2.182.811-1.31.623.374-2.057 3.367zm-1.06 1.496l-1.309-.935c-.062.187-.249.436-.436.686-.624.872-1.559 1.62-2.618.872-.437-.311-.561-.685-.624-1.059-.062-.686.374-1.434.748-2.057.312-.374.561-.748.811-.998l3.927 2.805-.499.686zm-3.428-2.431c-.125.125-.25.249-.437.499-.374.561-.685 1.371-.062 1.807.686.499 1.309-.124 1.745-.623.125-.187.25-.374.312-.561l-1.558-1.122zm-.624 7.667a6.98 6.98 0 01-.935 1.185c-.561.623-1.558 1.496-2.306.81-.436-.374-.436-.997-.125-1.496-.561.436-1.184.561-1.683.125-.935-.873 0-2.12.624-2.868.374-.374.748-.81.935-.997l3.49 3.241zm-3.677-2.244l-.499.499c-.374.436-.873 1.184-.374 1.62.499.499 1.122.063 1.683-.561l.436-.498-1.246-1.06zm1.683 1.496l-.437.499c-.436.498-.748 1.122-.311 1.496.374.312.81.187 1.371-.499.187-.187.312-.374.436-.561l-1.059-.935zm-2.12 5.174l-1.371-1.496c-.499-.561-.873-.935-1.31-1.434.188.624.312.998.437 1.621l.623 2.868-.748.685-3.304-3.491.624-.561 1.371 1.496c.561.561.81.873 1.309 1.497-.187-.686-.312-1.06-.436-1.621-.187-.873-.437-1.87-.624-2.868l.748-.685 3.304 3.49-.623.499zm-6.608 5.673l-2.555-3.242-.374.312-1.31-1.746.562-.436.997 1.185 2.618-2.058-.935-1.246.561-.437 1.371 1.683-.311.25c0 .374.124.748.249 1.059.249.562.561 1.123.998 1.684l.748.997-2.619 1.995zm.998-2.618a10.289 10.289 0 01-.935-1.559c-.125-.312-.187-.623-.25-.935l-1.745 1.372 2.182 2.742 1.246-.997-.498-.623zm-4.301 1.808c-.686-.998-1.559-.998-2.307-.499-.499.374-.748.623-.997.935l-.499-.436c.187-.312.561-.686 1.184-1.123 1.247-.81 2.494-.498 3.304.686.811 1.185.748 2.618-.436 3.429-1.309.872-2.431-.063-2.93-.811-.125-.124-.187-.249-.187-.374l2.868-1.807zm-1.808 1.932c.312.499.997 1.06 1.808.499.748-.499.623-1.372.311-1.933l-2.119 1.434zm-5.735 2.805c-.873-1.558-.125-2.867.873-3.428 1.122-.624 2.493-.25 3.241 1.059.748 1.434.312 2.743-.873 3.429-1.246.686-2.556.249-3.241-1.06zm3.304-1.87c-.499-.935-1.434-1.309-2.182-.935-.748.374-.935 1.371-.374 2.369.374.686 1.247 1.434 2.182.935.872-.499.81-1.559.374-2.369zm-37.029 6.109c.312-.125.997-.249 1.808-.249 1.87.062 3.241 1.371 3.179 3.553-.125 2.119-1.558 3.491-3.678 3.366-.81-.062-1.371-.249-1.558-.374l.25-.686c.31.187.81.312 1.37.312 1.559.062 2.681-.873 2.743-2.68.063-1.621-.81-2.743-2.43-2.805-.5 0-1.06.062-1.435.187l-.249-.624zm-1.62 4.488l-1.06-.125-.5-2.555c-.062-.374-.186-.998-.249-1.372-.187.312-.56 1.06-.81 1.559l-1.06 1.994-1.06-.124.375-4.8.81.124-.25 2.307c-.062.499-.062 1.122-.186 1.745.187-.436.374-.81.748-1.496l1.246-2.306.624.062.498 2.494c.063.498.188 1.184.25 1.683h.062c.125-.561.25-1.185.312-1.683l.436-2.244.81.124-.997 4.613zm-10.224-4.426c.436-1.745 1.808-2.182 2.93-1.932 1.247.312 1.995 1.496 1.683 2.93-.374 1.558-1.62 2.244-2.93 1.932-1.371-.249-2.057-1.496-1.683-2.93zm3.678.873c.25-.997-.125-1.932-.997-2.119-.81-.187-1.621.436-1.87 1.496-.188.81-.063 1.87.997 2.119.997.249 1.683-.623 1.87-1.496zm-8.603.062l.187-.685 1.434.436 1.247-3.927.81.249-1.246 3.927 1.433.437-.187.685-3.678-1.122zm-.311-1.807c-.25.561-.437 1.059-.562 1.496l-.748-.312.25-.81c-.561.436-1.185.498-1.933.187-1.06-.437-1.496-1.684-.935-3.055.686-1.621 1.995-1.995 2.992-1.558.562.249.998.685 1.06 1.246l.998-2.431.81.312-1.933 4.925zm-.312-1.497c.062-.124.062-.249.124-.374.063-.623-.249-1.184-.81-1.433-.873-.374-1.62.124-2.057 1.184-.374.873-.187 1.87.623 2.182.561.249 1.247.062 1.621-.499.063-.062.125-.187.187-.312l.312-.748zm-5.049-1.87c.498-1.059.062-1.87-.686-2.244-.561-.311-.935-.374-1.31-.374l.126-.623c.311 0 .872.125 1.558.499 1.31.685 1.683 1.932.997 3.241-.685 1.309-1.932 1.932-3.179 1.247-1.371-.748-1.122-2.12-.748-2.93.063-.187.187-.249.187-.374l3.055 1.558zm-2.556-.623c-.25.499-.437 1.371.436 1.808.81.436 1.496-.125 1.87-.624l-2.306-1.184zm-5.548-1.06l.374-.623 1.309.81 2.182-3.491.748.437-2.182 3.491 1.309.81-.374.623-3.366-2.057zm-1.496-.997l.935-1.309c-.187-.063-.437-.25-.686-.437-.873-.623-1.62-1.558-.873-2.618.312-.436.686-.561 1.06-.623.686-.062 1.434.374 2.057.748.374.312.748.561.998.81l-2.806 3.927-.685-.498zm2.43-3.491a4.035 4.035 0 00-.498-.436c-.56-.374-1.371-.686-1.808-.063-.498.686.125 1.309.624 1.746.187.124.374.249.56.311l1.123-1.558zm-7.604-.561a6.99 6.99 0 01-1.184-.935c-.624-.561-1.497-1.558-.81-2.306.373-.437.997-.437 1.495-.125-.436-.561-.56-1.185-.125-1.683.873-.935 2.12 0 2.868.623.374.374.81.748.997.935l-3.241 3.491zm.686-2.057l-.5-.436c-.498-.437-1.121-.748-1.495-.312-.312.374-.187.81.498 1.371.188.187.375.312.562.437l.935-1.06zm1.496-1.621l-.499-.499c-.436-.374-1.184-.872-1.62-.374-.5.499-.063 1.123.56 1.684l.499.436 1.06-1.247zm-6.671-.436l1.496-1.372c.561-.498.936-.872 1.434-1.309-.623.187-.997.312-1.62.437l-2.868.623-.686-.748 3.491-3.304.561.623-1.496 1.372c-.561.561-.873.81-1.496 1.309.686-.187 1.06-.312 1.62-.436.873-.187 1.87-.437 2.868-.624l.686.748-3.491 3.304-.499-.623zm-5.672-6.67l3.242-2.556-.312-.374 1.745-1.309.437.561-1.185.997 2.057 2.618 1.247-.935.436.561-1.683 1.372-.249-.312c-.374 0-.748.125-1.06.249a7.952 7.952 0 00-1.683.998l-.997.748-1.995-2.618zm2.68.997c.5-.374 1.06-.686 1.559-.935.312-.125.623-.187.935-.249l-1.371-1.746-2.743 2.182.997 1.247.623-.499zm-1.87-4.239c.997-.685.997-1.558.499-2.306-.374-.499-.624-.748-.935-.998l.436-.498c.312.187.686.561 1.122 1.184.81 1.247.499 2.494-.686 3.304-1.184.81-2.618.748-3.428-.436-.873-1.309.062-2.431.81-2.93.125-.125.25-.187.374-.187l1.808 2.867zm-1.932-1.807c-.5.311-1.06.997-.5 1.807.5.748 1.372.624 1.933.312l-1.433-2.119zm-2.805-5.798c1.558-.873 2.867-.125 3.428.873.624 1.122.25 2.493-1.06 3.241-1.433.748-2.742.312-3.428-.872-.686-1.185-.25-2.494 1.06-3.242zm1.87 3.366c.935-.498 1.31-1.433.935-2.181-.374-.748-1.371-.935-2.369-.374-.685.374-1.433 1.246-.935 2.181.561.873 1.559.81 2.369.374zm-6.109-37.09c.125.312.25.997.25 1.808-.063 1.87-1.372 3.241-3.554 3.179-2.12-.125-3.49-1.558-3.366-3.678.062-.81.25-1.371.374-1.558l.686.249c-.187.312-.312.81-.312 1.371-.062 1.559.873 2.68 2.68 2.743 1.621.063 2.743-.81 2.806-2.431 0-.499-.063-1.06-.187-1.434l.623-.25zm-4.426-1.621l.125-1.06 2.556-.498c.374-.063.997-.187 1.371-.25-.374-.187-1.06-.56-1.558-.81l-1.995-1.06.125-1.06 4.8.374-.125.81-2.307-.248c-.498-.063-1.122-.063-1.745-.188.499.25.873.437 1.558.749l2.307 1.246-.063.624-2.493.498c-.499.125-1.247.25-1.683.312v.062c.561.125 1.184.25 1.683.312l2.244.436-.125.81-4.675-1.059zm4.363-10.223c1.746.436 2.182 1.808 1.933 2.93-.312 1.246-1.496 1.995-2.93 1.683-1.558-.374-2.244-1.621-1.932-2.93.311-1.371 1.496-2.057 2.93-1.683zm-.872 3.74c.997.25 1.932-.125 2.12-.997.186-.81-.437-1.621-1.497-1.87-.81-.188-1.87-.063-2.12.997-.186.997.624 1.62 1.497 1.87zm-.063-8.602l.686.187-.436 1.433 3.927 1.247-.312.873-3.927-1.247-.436 1.434-.686-.187 1.184-3.74zm1.809-.374c-.562-.25-1.06-.437-1.497-.561l.312-.748.81.249c-.436-.561-.498-1.184-.187-1.932.437-1.06 1.684-1.497 3.055-.935 1.62.685 1.995 1.994 1.558 2.992-.249.56-.685.997-1.246 1.06l2.43.997-.31.81-4.925-1.932zm1.496-.312c.124.062.249.062.374.125.623.062 1.184-.25 1.433-.81.374-.873-.124-1.622-1.184-2.058-.873-.374-1.87-.187-2.182.623-.25.562-.062 1.247.499 1.621.062.063.187.125.312.187l.748.312zm1.932-4.987c1.06.499 1.87.062 2.244-.686.312-.56.374-.935.374-1.309l.624.125c0 .311-.125.873-.5 1.558-.685 1.31-1.932 1.683-3.24.998-1.31-.686-1.933-1.933-1.247-3.18.748-1.371 2.12-1.122 2.93-.748.187.063.249.187.373.187l-1.558 3.055zm.623-2.618c-.498-.25-1.37-.437-1.807.436-.437.81.124 1.496.623 1.87l1.184-2.306zm.997-5.486l.624.374-.81 1.31 3.49 2.181-.436.748-3.491-2.182-.81 1.31-.624-.375 2.057-3.366zm1.06-1.558l1.31.935c.062-.187.248-.437.435-.686.624-.873 1.559-1.62 2.619-.873.436.312.56.686.623 1.06.062.686-.374 1.434-.748 2.057-.312.374-.561.748-.81.998l-3.928-2.743.5-.748zm3.429 2.493c.124-.125.249-.25.436-.499.374-.56.686-1.371.062-1.807-.685-.5-1.309.124-1.745.623-.125.187-.25.374-.312.561l1.559 1.122zm.624-7.667a6.99 6.99 0 01.934-1.185c.561-.623 1.559-1.496 2.307-.81.436.374.436.997.124 1.496.561-.436 1.185-.561 1.683-.125.936.873 0 2.12-.623 2.868-.374.374-.748.81-.935.997l-3.49-3.241zm1.994.685l.436-.498c.437-.499.748-1.122.312-1.496-.374-.312-.81-.187-1.371.498a3.428 3.428 0 00-.437.561l1.06.935zm1.683 1.497l.499-.5c.374-.436.872-1.183.374-1.62-.499-.499-1.122-.062-1.683.561l-.437.499 1.247 1.06zm.437-6.608l1.371 1.496c.499.56.873.935 1.31 1.434-.188-.624-.312-.998-.437-1.621l-.623-2.868.748-.685 3.303 3.49-.623.562-1.371-1.497c-.561-.56-.81-.872-1.31-1.496.188.686.312 1.06.437 1.621.187.873.436 1.87.623 2.868l-.748.685-3.304-3.49.624-.5zm6.608-5.673l2.555 3.242.375-.312 1.309 1.745-.561.437-.873-1.185-2.618 2.057.935 1.247-.561.436-1.372-1.683.312-.249c0-.374-.125-.748-.25-1.06a7.949 7.949 0 00-.997-1.683l-.748-.997 2.494-1.995zm-.998 2.618c.374.499.686 1.06.935 1.558.125.312.187.624.25.936l1.745-1.372-2.182-2.743-1.246.998.498.623zm4.301-1.808c.686.998 1.558.998 2.306.499.5-.374.749-.623.998-.935l.499.436c-.187.312-.561.686-1.185 1.122-1.246.81-2.493.499-3.304-.685-.81-1.185-.748-2.619.437-3.429 1.309-.873 2.43.062 2.93.81.124.125.187.25.187.375l-2.868 1.807zm1.808-1.932c-.312-.499-.997-1.06-1.808-.499-.748.499-.623 1.371-.312 1.933l2.12-1.434zm5.735-2.805c.872 1.558.124 2.867-.873 3.428-1.122.624-2.493.25-3.241-1.06-.748-1.433-.312-2.742.872-3.428 1.247-.685 2.556-.25 3.242 1.06zm-3.304 1.87c.499.935 1.434 1.31 2.182.935.748-.374.935-1.371.374-2.369-.374-.685-1.247-1.433-2.182-.935-.935.499-.873 1.559-.374 2.37z" fill="#192632"/><path d="M6.678 62.158c.125.312.25.997.25 1.808-.063 1.87-1.372 3.241-3.554 3.179-2.12-.125-3.49-1.558-3.366-3.678.062-.81.25-1.371.374-1.558l.686.249c-.187.312-.312.81-.312 1.371-.062 1.559.873 2.68 2.68 2.743 1.621.063 2.743-.81 2.806-2.431 0-.499-.063-1.06-.187-1.434l.623-.25zm-4.426-1.621l.125-1.06 2.556-.498c.374-.063.997-.187 1.371-.25-.374-.187-1.06-.56-1.558-.81l-1.995-1.06.125-1.06 4.8.374-.125.81-2.307-.248c-.498-.063-1.122-.063-1.745-.188.499.25.873.437 1.558.749l2.307 1.246-.063.624-2.493.498c-.499.125-1.247.25-1.683.312v.062c.561.125 1.184.25 1.683.312l2.244.436-.125.81-4.675-1.059zm4.363-10.223c1.746.436 2.182 1.808 1.933 2.93-.312 1.246-1.496 1.995-2.93 1.683-1.558-.374-2.244-1.621-1.932-2.93.311-1.371 1.496-2.057 2.93-1.683zm-.872 3.74c.997.25 1.932-.125 2.12-.997.186-.81-.437-1.621-1.497-1.87-.81-.188-1.87-.063-2.12.997-.186.997.624 1.62 1.497 1.87zm-.063-8.602l.686.187-.436 1.433 3.927 1.247-.312.873-3.927-1.247-.436 1.434-.686-.187 1.184-3.74zm1.809-.374c-.562-.25-1.06-.437-1.497-.561l.312-.748.81.249c-.436-.561-.498-1.184-.187-1.932.437-1.06 1.684-1.497 3.055-.935 1.62.685 1.995 1.994 1.558 2.992-.249.56-.685.997-1.246 1.06l2.43.997-.31.81-4.925-1.932zm1.496-.312c.124.062.249.062.374.125.623.062 1.184-.25 1.433-.81.374-.873-.124-1.622-1.184-2.058-.873-.374-1.87-.187-2.182.623-.25.562-.062 1.247.499 1.621.062.063.187.125.312.187l.748.312zm1.932-4.987c1.06.499 1.87.062 2.244-.686.312-.56.374-.935.374-1.309l.624.125c0 .311-.125.873-.5 1.558-.685 1.31-1.932 1.683-3.24.998-1.31-.686-1.933-1.933-1.247-3.18.748-1.371 2.12-1.122 2.93-.748.187.063.249.187.373.187l-1.558 3.055zm.623-2.618c-.498-.25-1.37-.437-1.807.436-.437.81.124 1.496.623 1.87l1.184-2.306zm.997-5.486l.624.374-.81 1.31 3.49 2.181-.436.748-3.491-2.182-.81 1.31-.624-.375 2.057-3.366zm1.06-1.558l1.31.935c.062-.187.248-.437.435-.686.624-.873 1.559-1.62 2.619-.873.436.312.56.686.623 1.06.062.686-.374 1.434-.748 2.057-.312.374-.561.748-.81.998l-3.928-2.743.5-.748zm3.429 2.493c.124-.125.249-.25.436-.499.374-.56.686-1.371.062-1.807-.685-.5-1.309.124-1.745.623-.125.187-.25.374-.312.561l1.559 1.122zm.624-7.667a6.99 6.99 0 01.934-1.185c.561-.623 1.559-1.496 2.307-.81.436.374.436.997.124 1.496.561-.436 1.185-.561 1.683-.125.936.873 0 2.12-.623 2.868-.374.374-.748.81-.935.997l-3.49-3.241zm1.994.685l.436-.498c.437-.499.748-1.122.312-1.496-.374-.312-.81-.187-1.371.498a3.428 3.428 0 00-.437.561l1.06.935zm1.683 1.497l.499-.5c.374-.436.872-1.183.374-1.62-.499-.499-1.122-.062-1.683.561l-.437.499 1.247 1.06zm.437-6.608l1.371 1.496c.499.56.873.935 1.31 1.434-.188-.624-.312-.998-.437-1.621l-.623-2.868.748-.685 3.303 3.49-.623.562-1.371-1.497c-.561-.56-.81-.872-1.31-1.496.188.686.312 1.06.437 1.621.187.873.436 1.87.623 2.868l-.748.685-3.304-3.49.624-.5zm6.608-5.673l2.555 3.242.375-.312 1.309 1.745-.561.437-.873-1.185-2.618 2.057.935 1.247-.561.436-1.372-1.683.312-.249c0-.374-.125-.748-.25-1.06a7.949 7.949 0 00-.997-1.683l-.748-.997 2.494-1.995zm-.998 2.618c.374.499.686 1.06.935 1.558.125.312.187.624.25.936l1.745-1.372-2.182-2.743-1.246.998.498.623zm4.301-1.808c.686.998 1.558.998 2.306.499.5-.374.749-.623.998-.935l.499.436c-.187.312-.561.686-1.185 1.122-1.246.81-2.493.499-3.304-.685-.81-1.185-.748-2.619.437-3.429 1.309-.873 2.43.062 2.93.81.124.125.187.25.187.375l-2.868 1.807zm1.808-1.932c-.312-.499-.997-1.06-1.808-.499-.748.499-.623 1.371-.312 1.933l2.12-1.434zm5.735-2.805c.872 1.558.124 2.867-.873 3.428-1.122.624-2.493.25-3.241-1.06-.748-1.433-.312-2.742.872-3.428 1.247-.685 2.556-.25 3.242 1.06zm-3.304 1.87c.499.935 1.434 1.31 2.182.935.748-.374.935-1.371.374-2.369-.374-.685-1.247-1.433-2.182-.935-.935.499-.873 1.559-.374 2.37z" fill="#192632"/></svg>