<svg width="50" height="16" fill="none" xmlns="http://www.w3.org/2000/svg"><path d="M.866.152v15.346h6.599c2.674 0 6.029-.811 6.029-4.297 0-2.258-1.425-3.376-2.938-3.815 1.36-.46 2.324-1.556 2.324-3.354 0-2.63-2.04-3.88-5.306-3.88H.866zm9.34 10.698c0 1.666-1.316 1.973-2.785 1.973H4.132V8.877h3.464c1.316 0 2.61.35 2.61 1.973zm-.593-6.248c0 1.184-.899 1.754-2.148 1.754h-3.31V2.848h3.134c1.447 0 2.324.548 2.324 1.754zm6.501-4.45v15.346h3.289V.152h-3.288zm10.081 15.346v-6.27h2.477l4.188 6.27h3.639l-5.262-7.87L36.214.152h-3.661l-3.88 6.094h-2.478V.152h-3.288v15.346h3.288zM38.284.152v15.346h10.94v-2.894h-7.652v-3.42h6.862V6.312h-6.862V3.046h7.52V.152H38.284z" fill="#FC0000"/></svg>