<svg width="136" height="17" fill="none" xmlns="http://www.w3.org/2000/svg"><path d="M7.007.91H.145v15.705h3.167v-5.142h3.695c3.607 0 5.807-1.215 5.807-5.235 0-4.02-2.288-5.328-5.807-5.328zm.088 7.572H3.312v-4.58h3.783c1.584 0 2.375.467 2.375 2.336.088 1.777-.703 2.244-2.375 2.244zm18.565 5.235h-7.391v-3.552h6.598V7.267H18.27V3.902h7.302V.911h-10.47v15.704H25.66v-2.898zm6.773 2.898h3.168V3.995h4.575V.911h-12.23v3.084h4.487v12.62zm19.444 0h3.695l-4.399-5.889c1.76-.56 3.255-1.963 3.255-4.674 0-4.02-2.991-5.141-5.894-5.141h-6.071v15.704h3.167V11.1h2.288l3.959 5.515zM45.542 3.902h3.08c1.32 0 2.463.56 2.463 2.244 0 1.589-1.144 2.243-2.463 2.243h-3.08V3.902zM64.195.63c-5.28 0-7.83 3.926-7.83 8.133 0 4.3 2.639 8.133 7.83 8.133 5.278 0 7.83-3.927 7.83-8.133 0-4.207-2.64-8.133-7.83-8.133zm0 13.18c-3.08 0-4.663-2.243-4.663-5.047s1.583-5.048 4.663-5.048c3.079 0 4.575 2.244 4.575 5.048s-1.584 5.048-4.575 5.048zm19.971-.56c-.44.187-.967.28-1.583.28-2.2 0-5.103-1.028-5.103-5.234 0-3.646 2.64-5.142 5.279-5.142 1.495 0 2.991.468 4.135 1.215V1.191A10.953 10.953 0 0082.319.163c-4.047 0-8.094 2.43-8.094 8.133 0 5.795 3.959 8.132 8.094 8.132 1.671 0 3.343-.374 4.839-1.028V7.641h-2.992v5.609zm17.86-7.665c0-4.02-2.99-5.142-5.894-5.142H90.06v15.705h3.167v-5.515h2.288l3.959 5.515h3.695l-4.399-5.89c1.848-.56 3.255-1.962 3.255-4.673zm-5.718 2.337h-3.08V3.435h3.08c1.32 0 2.463.56 2.463 2.243 0 1.59-1.144 2.244-2.463 2.244zM110.912.443l-6.07 15.705h3.255l1.056-2.898h6.774l1.056 2.898h3.255L114.256.443h-3.344zm-.703 10.003l2.023-5.61c.088-.28.264-.654.352-1.214.088.56.176.934.352 1.215l2.112 5.609h-4.839zM127.717.443h-5.543v15.705h5.543c5.279 0 7.742-3.272 7.742-7.852 0-4.487-2.463-7.853-7.742-7.853zm0 12.807h-2.375V3.435h2.375c2.904 0 4.487 1.682 4.487 4.86 0 3.272-1.583 4.955-4.487 4.955z" fill="#192632"/></svg>