<svg width="49" height="46" fill="none" xmlns="http://www.w3.org/2000/svg"><path d="M48.452 25.216v-.197c0-.098 0-.098-.092-.197l-5.918-14.676c0-.099 0-.197-.093-.394l-2.404-5.91v-.099s0-.098-.092-.098l-.093-.099-.092-.098h-.092L32.456.296c-.093 0-.093 0-.185-.099h-.278L16.46 0h-.185c-.092 0-.092 0-.185.099L9.062 3.25h-.093s-.092 0-.092.098l-.093.099-.092.098v.099s0 .098-.093.098l-2.496 5.91c0 .099-.093.197-.093.394L.092 24.724c0 .098 0 .098-.092.197v.591c0 .098 0 .098.092.197v.098l.093.099c0 .098.092.098.185.197l6.473 5.023 16.459 14.382s0 .098.092.098c.185.296.462.394.74.394h.092c.278 0 .555-.098.74-.394 0 0 0-.098.092-.098l16.09-13.865-.093-.098c-.37-.493-.647-1.084-.74-1.675v-.295L24.226 43.439 8.876 30.141l4.44-5.811 5.547 8.668v2.955c0 .394.185.69.462.886l4.161 2.562c.185.196.463.295.74.295h.093c.277 0 .554-.099.74-.295l4.16-2.562c.278-.197.463-.59.463-.886v-2.955l5.548-8.668 5.733 7.486.74-.69 6.472-5.023c.092 0 .092-.099.185-.099 0 0 .092-.098.092-.197 0-.098.093-.098.093-.197-.185-.197-.185-.295-.093-.394zm-20.897 8.176v1.871l-3.421 2.069-3.422-2.069v-1.871l3.422-.985 3.42.985zM15.812 16.844l-8.6 11.918-4.623-3.644L13.777 15.07l2.035 1.773zm-7.49-7.19l1.572-3.842 6.103 4.038-2.59 2.463-5.085-2.66zm9.709-.986l-6.38-4.235 4.53-2.069 3.977 6.304H18.03zm10.264 0l3.976-6.304 4.53 2.069-6.38 4.235h-2.126zm-10.634 9.16h1.387l-1.664 7.191v.493c0 .098 0 .098.092.197v.098l.093.099.092-.099h-.092l.092.099v.098l4.623 4.827-2.034.59-5.825-9.061 3.236-4.531zm-.092-2.166l-2.404-2.167 2.958-2.66h2.59l-1.11 4.827h-2.034zm8.322-6.994h-3.422l-4.068-6.501h11.65l-4.16 6.501zm-.185 2.167l3.143 13.298h-9.154l3.052-13.298h2.959zm5.085 15.07l.093-.098s.092-.098.092-.197c0-.098.093-.098.093-.197v-.492l-1.665-7.19h1.387l3.237 4.53-5.826 9.062-2.034-.59 4.623-4.827zM28.85 15.663l-1.11-4.827h2.59l2.959 2.66-2.404 2.167H28.85zm-1.294 10.54l-3.421 3.447-3.422-3.448h6.843zm7.397-13.89l-2.59-2.463 6.103-4.038 1.572 3.841-5.086 2.66zm10.819 12.806l-4.623 3.644-8.6-11.918 2.034-1.773 11.189 10.047zM36.617 13.79l4.253-2.167 3.884 9.752-8.137-7.585zm-33.01 7.585l3.883-9.752 4.253 2.167-8.137 7.585z" fill="#192632"/></svg>